<?xml version="1.0" encoding="UTF-8" standalone="no"?>
<!-- Created with Inkscape (http://www.inkscape.org/) -->

<svg
   xmlns:dc="http://purl.org/dc/elements/1.1/"
   xmlns:cc="http://creativecommons.org/ns#"
   xmlns:rdf="http://www.w3.org/1999/02/22-rdf-syntax-ns#"
   xmlns:svg="http://www.w3.org/2000/svg"
   xmlns="http://www.w3.org/2000/svg"
   xmlns:sodipodi="http://sodipodi.sourceforge.net/DTD/sodipodi-0.dtd"
   xmlns:inkscape="http://www.inkscape.org/namespaces/inkscape"
   width="10.054167mm"
   height="10.583333mm"
   viewBox="0 0 10.054167 10.583333"
   version="1.1"
   id="svg8"
   inkscape:version="0.92.4 (5da689c313, 2019-01-14)"
   sodipodi:docname="w-logo.svg">
  <defs
     id="defs2" />
  <sodipodi:namedview
     id="base"
     pagecolor="#ffffff"
     bordercolor="#666666"
     borderopacity="1.0"
     inkscape:pageopacity="0.0"
     inkscape:pageshadow="2"
     inkscape:zoom="7.9195959"
     inkscape:cx="51.339285"
     inkscape:cy="27.811371"
     inkscape:document-units="mm"
     inkscape:current-layer="layer1"
     showgrid="false"
     fit-margin-top="0"
     fit-margin-left="0"
     fit-margin-right="0"
     fit-margin-bottom="0"
     inkscape:window-width="1920"
     inkscape:window-height="1017"
     inkscape:window-x="-8"
     inkscape:window-y="-8"
     inkscape:window-maximized="1" />
  <metadata
     id="metadata5">
    <rdf:RDF>
      <cc:Work
         rdf:about="">
        <dc:format>image/svg+xml</dc:format>
        <dc:type
           rdf:resource="http://purl.org/dc/dcmitype/StillImage" />
        <dc:title></dc:title>
      </cc:Work>
    </rdf:RDF>
  </metadata>
  <g
     inkscape:label="Layer 1"
     inkscape:groupmode="layer"
     id="layer1"
     transform="translate(-93.246719,-139.00595)">
    <path
       style="fill:#ffffff;stroke-width:0.2537255"
       d="m 93.602676,149.09412 c -0.309375,-0.30937 -0.191068,-1.54137 0.17738,-1.84716 0.230547,-0.19134 1.229147,-0.26878 2.854412,-0.22136 l 2.499809,0.0729 v 1.01491 1.0149 l -2.677189,0.0715 c -1.472453,0.0393 -2.756939,-0.008 -2.854412,-0.10572 z m 4.897287,-0.98068 c 0,-0.30846 -0.40878,-0.38059 -2.156667,-0.38059 -1.747887,0 -2.156666,0.0721 -2.156666,0.38059 0,0.30845 0.408779,0.38058 2.156666,0.38058 1.747887,0 2.156667,-0.0721 2.156667,-0.38058 z m 1.538397,-0.27307 c 0.2637,-0.31774 0.26679,-0.44017 0.015,-0.59577 -0.233487,-0.1443 -0.12902,-0.41914 0.3969,-1.0442 0.61205,-0.72743 0.70519,-1.04033 0.65345,-2.19521 -0.034,-0.75839 0.0492,-1.34685 0.1903,-1.34685 0.13784,0 0.2501,-0.42816 0.24945,-0.95147 l -10e-4,-0.95147 -0.89334,1.64921 c -0.49134,0.90707 -1.141528,2.13447 -1.444869,2.72755 -0.303342,0.59308 -0.700043,1.07833 -0.88156,1.07833 -0.181516,0 -0.330029,0.11418 -0.330029,0.25373 0,0.13955 -0.621232,0.25372 -1.380516,0.25372 -0.759284,0 -1.451081,-0.11417 -1.537327,-0.25372 -0.08625,-0.13955 -0.378426,-0.25373 -0.649288,-0.25373 -0.44371,0 -0.492477,-0.18843 -0.492477,-1.90294 v -1.90294 h 1.39549 1.395491 v 1.26863 c 0,0.69774 0.08563,1.26391 0.190294,1.25814 0.104661,-0.006 1.088506,-1.317 2.18632,-2.91385 2.538411,-3.69231 2.692901,-3.65728 2.801601,0.63527 0.068,2.68619 0.14546,3.18058 0.54375,3.47182 0.25544,0.18678 0.34242,0.3396 0.19328,0.3396 -0.14913,0 -0.41329,-0.17127 -0.58701,-0.38059 -0.42856,-0.51639 -0.84785,-0.47827 -1.39549,0.12686 -0.45409,0.50177 -0.44317,0.50745 0.97558,0.50745 1.3431,0 1.84342,0.27449 1.11766,0.61318 -0.25373,0.1184 -0.25373,0.1776 0,0.29601 0.76292,0.35603 0.19128,0.61317 -1.36313,0.61317 -1.500928,0 -1.644856,-0.0427 -1.34838,-0.39993 z M 98.337991,144.815 c -0.164254,-0.42804 -0.497061,-0.4974 -0.712674,-0.14853 -0.07888,0.12763 1.4e-5,0.28988 0.17532,0.36056 0.561981,0.22657 0.686765,0.17733 0.537354,-0.21203 z m 0.567933,-0.53282 c -0.0903,-0.23532 -0.221268,-0.37076 -0.291043,-0.30098 -0.06977,0.0698 -0.05298,0.31939 0.03732,0.55471 0.0903,0.23531 0.221269,0.37075 0.291043,0.30098 0.06977,-0.0698 0.05298,-0.31939 -0.03732,-0.55471 z m -2.943216,-0.48208 c 0,-0.50745 -0.126863,-0.63431 -0.634314,-0.63431 -0.507451,0 -0.634313,0.12686 -0.634313,0.63431 0,0.50745 0.126862,0.63432 0.634313,0.63432 0.507451,0 0.634314,-0.12687 0.634314,-0.63432 z m 3.150955,-0.46968 c -0.08768,-0.22849 -0.267179,-0.34885 -0.398881,-0.26745 -0.142771,0.0882 -0.117437,0.29502 0.06274,0.51213 0.371169,0.44723 0.551326,0.31609 0.336139,-0.24468 z m 0.447718,-0.47333 c -0.182063,-0.18207 -0.300241,-0.19705 -0.300241,-0.0381 0,0.33867 0.300058,0.63873 0.469392,0.46939 0.0721,-0.0721 -0.004,-0.2662 -0.169151,-0.43133 z m 0.460939,-0.84804 c 0,-0.21756 -0.11418,-0.325 -0.253729,-0.23875 -0.139549,0.0862 -0.253726,0.26425 -0.253726,0.39556 0,0.13131 0.114177,0.23875 0.253726,0.23875 0.139549,0 0.253729,-0.178 0.253729,-0.39556 z m 1.52235,-1.88797 c 0,-0.13955 -0.11418,-0.25372 -0.25373,-0.25372 -0.13955,0 -0.25372,0.11417 -0.25372,0.25372 0,0.13955 0.11417,0.25373 0.25372,0.25373 0.13955,0 0.25373,-0.11418 0.25373,-0.25373 z"
       id="path3724"
       inkscape:connector-curvature="0" />
  </g>
</svg>
